<svg version="1.1" id="Layer_1" xmlns="http://www.w3.org/2000/svg" xmlns:xlink="http://www.w3.org/1999/xlink" x="0px" y="0px"
	 width="100%" viewBox="0 0 192 192" enable-background="new 0 0 192 192" xml:space="preserve">
<path fill="#000000" opacity="1.000000" stroke="none" 
	d="
M108.000000,193.000000 
	C72.023125,193.000000 36.546246,193.000000 1.034685,193.000000 
	C1.034685,129.064819 1.034685,65.129631 1.034685,1.097215 
	C64.893372,1.097215 128.786942,1.097215 192.840256,1.097215 
	C192.840256,64.999680 192.840256,128.999802 192.840256,193.000000 
	C164.796585,193.000000 136.648300,193.000000 108.000000,193.000000 
M183.997116,126.500000 
	C183.996826,101.171013 183.996826,75.842018 183.996155,50.513031 
	C183.995834,38.642952 174.304291,32.298592 163.723022,37.938446 
	C153.371674,43.455750 143.444992,49.807934 133.553452,56.139759 
	C122.084587,63.481277 110.935593,71.323853 99.431183,78.606842 
	C97.899055,79.576775 94.591225,79.339294 92.957878,78.309456 
	C72.278503,65.270851 51.789364,51.931057 31.167130,38.800919 
	C26.382895,35.754814 21.047373,34.502525 15.671634,37.251217 
	C11.241954,39.516178 9.036461,43.513748 9.029187,48.454914 
	C8.978901,82.615379 8.979856,116.775993 9.031067,150.936447 
	C9.037957,155.532700 13.395188,161.582428 17.291353,162.920273 
	C28.238491,166.679245 37.924225,159.594681 37.915703,147.866943 
	C37.900326,126.704079 37.903954,105.541191 37.921227,84.378334 
	C37.922497,82.822151 38.097450,81.266121 38.230232,79.072800 
	C42.440811,81.659508 46.083763,83.814102 49.643162,86.098862 
	C63.695618,95.119026 77.737289,104.156235 91.745827,113.244370 
	C94.837166,115.249901 97.368362,115.395752 100.732208,113.163254 
	C111.778725,105.832008 123.143456,98.981522 134.351395,91.891731 
	C141.047592,87.655937 147.679276,83.318146 155.021942,78.586754 
	C155.021942,81.239662 155.021942,83.030579 155.021942,84.821495 
	C155.021942,105.817734 154.780090,126.819176 155.231827,147.805695 
	C155.319183,151.864410 157.559433,156.215546 159.811844,159.800095 
	C162.415543,163.943649 169.305298,165.175720 176.160858,162.753418 
	C179.930527,161.421478 183.965912,155.220230 183.986542,150.995743 
	C184.024765,143.164001 183.998627,135.331924 183.997116,126.500000 
M87.359627,187.134674 
	C92.538864,190.792404 98.429131,191.639526 103.662788,188.462357 
	C112.748169,182.946930 121.366493,176.640030 129.975647,170.382919 
	C131.495834,169.278061 132.838165,166.812912 132.869446,164.952515 
	C133.107498,150.800537 133.007446,136.642715 132.982117,122.486778 
	C132.980179,121.406006 132.743439,120.325668 132.562378,118.792450 
	C131.091461,119.313293 129.940262,119.493813 129.046753,120.072334 
	C119.828407,126.041046 110.634201,132.047592 101.473541,138.104507 
	C98.530289,140.050568 95.907082,141.489243 92.324760,138.926651 
	C85.403435,133.975510 78.232422,129.367615 71.084763,124.741272 
	C67.749260,122.582352 64.226875,120.712158 60.789207,118.711090 
	C60.205975,118.970169 59.622746,119.229240 59.039513,119.488319 
	C59.039513,134.737244 58.971165,149.986938 59.142799,165.233948 
	C59.160408,166.798248 60.208923,168.914551 61.466175,169.810013 
	C69.736168,175.700104 78.194740,181.325439 87.359627,187.134674 
M106.007019,13.538463 
	C106.006981,12.705379 106.009514,11.872287 106.006500,11.039215 
	C105.983147,4.571808 105.555672,4.125966 99.269028,4.092652 
	C96.603226,4.078525 93.925644,4.249048 91.274307,4.053072 
	C87.906677,3.804152 86.860626,5.361719 86.969063,8.488452 
	C87.110565,12.568335 87.003708,16.656832 87.003708,21.176176 
	C81.937508,21.176176 77.676491,21.176176 73.080063,21.176176 
	C73.080063,26.587805 72.837387,31.574598 73.248680,36.506859 
	C73.353043,37.758308 75.416878,39.622250 76.792763,39.835724 
	C79.991142,40.331966 83.318985,39.993820 87.185135,39.993820 
	C87.185135,45.691921 87.185135,50.745655 87.185135,55.989937 
	C92.455772,55.989937 97.113914,55.882202 101.764259,56.026218 
	C105.098282,56.129471 106.162247,54.583282 106.038979,51.469017 
	C105.890831,47.725933 106.003960,43.972511 106.003960,39.992645 
	C109.990936,39.992645 113.206230,40.342541 116.278862,39.832691 
	C117.643951,39.606178 119.599190,37.754673 119.762817,36.449703 
	C120.235924,32.676449 119.835442,28.802677 119.970367,24.975153 
	C120.078766,21.900282 118.703918,20.822264 115.756088,20.966810 
	C112.653183,21.118963 109.537018,21.000893 106.007034,21.000893 
	C106.007034,18.406322 106.007034,16.442545 106.007019,13.538463 
z"/>
<path fill="#0175AE" opacity="1.000000" stroke="none" 
	d="
M183.998199,127.000000 
	C183.998627,135.331924 184.024765,143.164001 183.986542,150.995743 
	C183.965912,155.220230 179.930527,161.421478 176.160858,162.753418 
	C169.305298,165.175720 162.415543,163.943649 159.811844,159.800095 
	C157.559433,156.215546 155.319183,151.864410 155.231827,147.805695 
	C154.780090,126.819176 155.021942,105.817734 155.021942,84.821495 
	C155.021942,83.030579 155.021942,81.239662 155.021942,78.586754 
	C147.679276,83.318146 141.047592,87.655937 134.351395,91.891731 
	C123.143456,98.981522 111.778725,105.832008 100.732208,113.163254 
	C97.368362,115.395752 94.837166,115.249901 91.745827,113.244370 
	C77.737289,104.156235 63.695618,95.119026 49.643162,86.098862 
	C46.083763,83.814102 42.440811,81.659508 38.230232,79.072800 
	C38.097450,81.266121 37.922497,82.822151 37.921227,84.378334 
	C37.903954,105.541191 37.900326,126.704079 37.915703,147.866943 
	C37.924225,159.594681 28.238491,166.679245 17.291353,162.920273 
	C13.395188,161.582428 9.037957,155.532700 9.031067,150.936447 
	C8.979856,116.775993 8.978901,82.615379 9.029187,48.454914 
	C9.036461,43.513748 11.241954,39.516178 15.671634,37.251217 
	C21.047373,34.502525 26.382895,35.754814 31.167130,38.800919 
	C51.789364,51.931057 72.278503,65.270851 92.957878,78.309456 
	C94.591225,79.339294 97.899055,79.576775 99.431183,78.606842 
	C110.935593,71.323853 122.084587,63.481277 133.553452,56.139759 
	C143.444992,49.807934 153.371674,43.455750 163.723022,37.938446 
	C174.304291,32.298592 183.995834,38.642952 183.996155,50.513031 
	C183.996826,75.842018 183.996826,101.171013 183.998199,127.000000 
z"/>
<path fill="#0175AF" opacity="1.000000" stroke="none" 
	d="
M86.975716,187.085907 
	C78.194740,181.325439 69.736168,175.700104 61.466175,169.810013 
	C60.208923,168.914551 59.160408,166.798248 59.142799,165.233948 
	C58.971165,149.986938 59.039513,134.737244 59.039513,119.488319 
	C59.622746,119.229240 60.205975,118.970169 60.789207,118.711090 
	C64.226875,120.712158 67.749260,122.582352 71.084763,124.741272 
	C78.232422,129.367615 85.403435,133.975510 92.324760,138.926651 
	C95.907082,141.489243 98.530289,140.050568 101.473541,138.104507 
	C110.634201,132.047592 119.828407,126.041046 129.046753,120.072334 
	C129.940262,119.493813 131.091461,119.313293 132.562378,118.792450 
	C132.743439,120.325668 132.980179,121.406006 132.982117,122.486778 
	C133.007446,136.642715 133.107498,150.800537 132.869446,164.952515 
	C132.838165,166.812912 131.495834,169.278061 129.975647,170.382919 
	C121.366493,176.640030 112.748169,182.946930 103.662788,188.462357 
	C98.429131,191.639526 92.538864,190.792404 86.975716,187.085907 
z"/>
<path fill="#0174AE" opacity="1.000000" stroke="none" 
	d="
M106.007027,14.008615 
	C106.007034,16.442545 106.007034,18.406322 106.007034,21.000893 
	C109.537018,21.000893 112.653183,21.118963 115.756088,20.966810 
	C118.703918,20.822264 120.078766,21.900282 119.970367,24.975153 
	C119.835442,28.802677 120.235924,32.676449 119.762817,36.449703 
	C119.599190,37.754673 117.643951,39.606178 116.278862,39.832691 
	C113.206230,40.342541 109.990936,39.992645 106.003960,39.992645 
	C106.003960,43.972511 105.890831,47.725933 106.038979,51.469017 
	C106.162247,54.583282 105.098282,56.129471 101.764259,56.026218 
	C97.113914,55.882202 92.455772,55.989937 87.185135,55.989937 
	C87.185135,50.745655 87.185135,45.691921 87.185135,39.993820 
	C83.318985,39.993820 79.991142,40.331966 76.792763,39.835724 
	C75.416878,39.622250 73.353043,37.758308 73.248680,36.506859 
	C72.837387,31.574598 73.080063,26.587805 73.080063,21.176176 
	C77.676491,21.176176 81.937508,21.176176 87.003708,21.176176 
	C87.003708,16.656832 87.110565,12.568335 86.969063,8.488452 
	C86.860626,5.361719 87.906677,3.804152 91.274307,4.053072 
	C93.925644,4.249048 96.603226,4.078525 99.269028,4.092652 
	C105.555672,4.125966 105.983147,4.571808 106.006500,11.039215 
	C106.009514,11.872287 106.006981,12.705379 106.007027,14.008615 
z"/>
</svg>